<svg width="143" height="121" viewBox="0 0 143 121" fill="none" xmlns="http://www.w3.org/2000/svg">
<path d="M15.0826 57.3358C14.3815 57.1235 13.561 56.853 12.6821 56.5503C6.52037 54.4276 1.9937 48.7261 2.19651 42.2123C2.55902 30.5695 12.4233 25.7506 25.5158 25.101C27.9205 24.9817 28.5767 25.5197 29.6744 27.119C31.0324 29.0975 33.0577 21.6341 33.452 20.913C41.2459 6.66276 58.4362 3.82026 75.7787 4.07493C85.2664 4.21426 95.1531 3.38168 93.1629 12.8274C92.1389 17.6876 103.799 12.5975 107.372 12.2535C119.67 11.0693 135.838 15.0132 138.983 26.2308C141.745 36.0784 142.468 46.5059 128.214 48.8028C126.295 49.112 123.178 49.6838 120.467 49.6502C122.977 54.1906 115.778 67.5463 114.177 69.6662C106.018 80.4653 86.1831 79.9021 73.3649 77.1252C63.8811 75.0706 62.2989 69.5396 61.24 62.305C60.9291 60.1814 48.0424 67.5231 46.2609 68.2716C37.9328 71.7708 26.6109 76.6864 17.1982 74.1703C7.75082 71.645 6.22168 63.203 15.1698 58.1969C15.5171 58.0026 15.4636 57.4511 15.0826 57.3358Z" fill="#6FAAA9"/>
<path d="M7.09977 42.1967V42.1967C6.91131 48.2499 11.1179 53.5482 16.8439 55.5207C17.6606 55.8021 18.423 56.0535 19.0746 56.2507C19.4286 56.3579 19.4784 56.8704 19.1556 57.051C10.8403 61.703 12.2613 69.548 21.0405 71.8947C29.7876 74.2329 40.3089 69.6649 48.048 66.4132C49.7035 65.7176 61.679 58.8951 61.9678 60.8685C62.9518 67.5915 64.4221 72.7314 73.2353 74.6406C85.147 77.2212 103.579 77.7446 111.161 67.7091C112.895 65.4133 121.694 48.9369 115.044 47.7717C114.695 47.7106 112.418 47.9549 113.669 48.5273C116.318 49.7386 121.522 48.7536 124.205 48.3212C137.451 46.1867 136.779 36.4966 134.213 27.3454C131.29 16.9211 116.266 13.2561 104.837 14.3565C101.517 14.6762 90.6816 19.4063 91.6332 14.8899C93.4827 6.11212 84.2951 6.88582 75.4784 6.75635C59.3623 6.51969 43.3877 9.16117 36.145 22.4037C35.7785 23.0738 33.8964 30.0094 32.6345 28.1708C31.6144 26.6846 31.0046 26.1846 28.77 26.2955C16.6033 26.8991 7.43664 31.3772 7.09977 42.1967Z" stroke="#F6F6F6" stroke-linecap="round"/>
<path d="M34.3567 82.761C31.1034 85.6597 30.9952 88.6707 32.7103 92.336C34.5869 96.3487 36.679 100.401 36.5706 105.077C36.5149 107.547 36.3197 110.081 33.7 111.145C31.1604 112.176 29.0438 110.766 27.2937 109.059C24.5673 106.402 23.4978 102.953 23.7228 99.2489C24.1 93.0249 26.7758 87.8029 31.3395 83.5917C32.0072 82.9768 32.7914 82.1807 34.3605 82.7582L34.3567 82.761ZM29.2762 90.5761C28.3391 93.3431 27.5578 95.1626 27.1152 97.065C26.2443 100.82 26.6124 104.416 29.414 107.339C30.3579 108.321 31.5585 109.299 33.069 108.793C34.6227 108.273 34.3938 106.7 34.4818 105.484C34.8769 100.097 31.9042 95.892 29.2757 90.5795L29.2762 90.5761Z" fill="#6FAAA9"/>
<path d="M127.949 59.0191C129.715 61.3241 129.885 63.593 129.154 66.2843C128.353 69.2306 127.444 72.1989 127.679 75.7201C127.802 77.58 127.998 79.4937 129.372 80.3939C130.703 81.2667 131.725 80.2873 132.55 79.0703C133.835 77.1763 134.247 74.6227 133.99 71.8283C133.559 67.1324 131.998 63.1019 129.515 59.7595C129.152 59.2715 128.723 58.6426 127.947 59.0168L127.949 59.0191ZM130.833 65.0921C131.416 67.2093 131.883 68.6078 132.181 70.0557C132.768 72.9138 132.718 75.6043 131.406 77.6952C130.963 78.3981 130.39 79.0873 129.602 78.6488C128.792 78.1981 128.848 77.0237 128.757 76.1062C128.349 72.039 129.7 68.9899 130.833 65.0947L130.833 65.0921Z" fill="#6FAAA9"/>
<path d="M70.836 82.1113C69.2164 83.4656 69.1761 84.8876 70.0541 86.6271C71.0149 88.5316 72.084 90.4559 72.0514 92.6645C72.0349 93.831 71.9487 95.0274 70.6386 95.5176C69.3685 95.9928 68.2994 95.3169 67.4129 94.5023C66.0318 93.2344 65.4789 91.5998 65.5746 89.8511C65.7349 86.9125 67.0539 84.4579 69.3253 82.4897C69.6576 82.2023 70.0476 81.8299 70.8379 82.11L70.836 82.1113ZM68.322 85.7797C67.8644 87.0826 67.4807 87.9385 67.2674 88.8352C66.8477 90.6053 67.0492 92.3058 68.4692 93.6995C68.9477 94.168 69.5549 94.6354 70.3109 94.4034C71.0884 94.1649 70.9662 93.4207 71.0047 92.8469C71.1779 90.3038 69.666 88.3033 68.3218 85.7813L68.322 85.7797Z" fill="#6FAAA9"/>
<path d="M103.06 94.2949C106.233 96.9287 106.264 99.6679 104.459 103.004C102.483 106.656 100.292 110.345 100.28 114.599C100.273 116.846 100.403 119.151 102.99 120.116C105.498 121.052 107.646 119.767 109.437 118.212C112.225 115.792 113.381 112.653 113.251 109.284C113.034 103.622 110.497 98.8742 106.05 95.0476C105.399 94.4889 104.637 93.7654 103.056 94.2923L103.06 94.2949ZM107.931 101.4C108.795 103.916 109.528 105.57 109.921 107.301C110.695 110.716 110.235 113.988 107.365 116.649C106.398 117.544 105.174 118.435 103.68 117.976C102.143 117.504 102.411 116.073 102.355 114.967C102.098 110.067 105.172 106.238 107.931 101.403L107.931 101.4Z" fill="#6FAAA9"/>
</svg>
