<svg width="254" height="28" viewBox="0 0 254 28" fill="none" xmlns="http://www.w3.org/2000/svg">
<path d="M13.6039 3.40129C13.6673 4.0039 13.699 4.57479 13.699 5.20912C13.6673 7.39753 13.6356 9.61766 13.5721 11.8061C13.5087 14.6288 13.3501 17.4198 13.2233 20.2109C13.1915 20.972 13.1598 21.765 13.033 22.5261C12.9061 23.097 12.7158 23.6679 12.4304 24.2071C12.0498 24.9366 11.5423 24.9049 11.1617 24.1754C10.7494 23.4142 10.6225 22.6213 10.6542 21.8284C10.7494 19.9888 10.8763 18.1493 10.908 16.3098C10.9714 15.9926 10.908 15.6754 10.908 15.2631C8.27554 15.4217 5.67481 15.5803 3.01065 15.7072C2.94722 16.5318 2.88379 17.293 2.85207 18.0224C2.82036 19.3228 2.85207 20.6232 2.78864 21.8601C2.69349 22.875 2.5032 23.8265 2.34462 24.8097C2.3129 25.0317 2.28118 25.222 2.15432 25.3806C1.99574 25.5709 1.80544 25.8246 1.58343 25.8563C1.45656 25.8563 1.17112 25.6343 1.10768 25.4757C0.822239 24.7463 0.56851 23.9851 0.441645 23.2873C0.283064 22.5261 0.283064 21.7332 0.283064 20.972C0.283064 19.6083 0.409929 18.2445 0.441645 16.8489C0.441645 16.2781 0.600226 15.612 0.1562 15.0094C0.0610513 14.9143 0.124484 14.5654 0.251348 14.4068C0.631942 14.0262 0.56851 13.5505 0.631942 13.1064C0.949104 9.52251 1.29798 5.90687 1.61514 2.35466C1.64686 1.87892 1.80544 1.40318 2.02745 1.02258C2.47148 0.29311 3.32782 0.356544 3.67669 1.14945C3.80356 1.49832 3.86699 1.91063 3.83527 2.32294C3.77184 4.0039 3.64498 5.68486 3.4864 7.39753C3.35953 9.52251 3.20095 11.6475 3.07409 13.9311C5.70653 13.8042 8.30725 13.6773 11.0031 13.5505C11.0031 13.4553 11.0666 13.2333 11.0666 12.9796C11.2569 10.03 11.4154 7.08037 11.6057 4.1942C11.6692 3.90875 11.6692 3.62331 11.7009 3.36958C11.8595 2.76697 12.2083 2.51324 12.6841 2.51324C13.1598 2.54496 13.5087 2.8304 13.6039 3.40129ZM31.6481 23.319C31.6798 23.7948 31.6798 24.2388 31.5847 24.7146C31.553 24.9683 31.2675 25.3172 31.0772 25.3489C30.8235 25.444 30.5381 25.2854 30.3478 25.1269C30.1575 24.9366 30.0623 24.6194 30.0306 24.3974C29.872 23.8265 29.7134 23.2873 29.6817 22.7482C29.1743 18.0542 28.6985 13.4236 28.2228 8.72961C28.2228 8.41245 28.1276 8.19043 28.0325 7.77812C27.7153 8.3173 27.4933 8.69789 27.303 9.04677C25.5903 12.3453 23.9728 15.5803 22.1967 18.7836C21.0866 20.8452 19.818 22.8116 18.5176 24.778C18.1687 25.3172 17.6613 25.7295 17.027 25.6343C16.3609 25.444 15.9803 25.0317 16.012 24.3974C16.012 23.3508 16.0438 22.3676 16.1389 21.3526C16.3609 17.3564 16.6464 13.3919 16.9635 9.36393C17.0904 7.61954 17.1855 5.93859 17.3441 4.16248C17.4076 3.78189 17.5344 3.27443 17.7564 2.92555C18.137 2.2278 18.7396 2.16436 19.0568 2.70354C19.3422 3.24271 19.5325 3.8136 19.4691 4.38449C19.2471 9.1102 18.8665 13.8359 18.5493 18.6251C18.5176 19.5131 18.4225 20.4012 18.3273 21.2892C18.3908 21.2892 18.4225 21.3209 18.5176 21.3209C18.6445 21.0989 18.8982 20.7818 19.0568 20.4963C20.0717 18.6251 21.0549 16.7538 22.0698 14.8825C23.4653 12.2184 24.8609 9.61766 26.3198 7.01694C26.6052 6.41433 27.0176 5.84344 27.4616 5.39941C28.3496 4.47964 29.3646 4.57479 29.7769 5.55799C29.9672 6.00202 30.0306 6.47776 30.094 6.9535C30.3478 9.52251 30.5698 12.0598 30.7918 14.6605C31.0455 17.515 31.3944 20.4329 31.6481 23.319ZM46.5436 3.08413C46.6387 3.30615 46.6387 3.55987 46.6704 3.75017C46.5753 7.80984 45.6872 12.7893 45.5286 19.0056C45.4969 20.528 45.5286 25.1586 44.1648 24.4925C43.7843 23.4776 43.4354 22.8433 43.2768 22.1773C42.8328 20.4012 42.7059 18.7836 42.8645 17.3247C43.1816 14.5337 43.4037 11.9647 43.6257 9.71281C43.6574 9.45908 43.6574 9.17364 43.6891 8.95162C43.594 8.91991 41.5007 13.1699 38.0119 12.6624C33.5717 12.1232 31.3198 3.8136 31.3515 2.64011C31.3515 2.41809 31.3832 2.19608 31.4784 2.0375C31.7321 1.72034 32.303 1.72034 32.6519 2.06921C32.8739 2.29123 32.969 2.54496 33.0959 2.8304C33.4131 3.65502 35.316 8.57103 38.1071 9.4908C40.9298 10.4106 43.1182 5.49456 43.816 4.06733C43.9428 3.75017 43.9746 3.40129 44.038 3.05242C44.0697 2.86212 44.0697 2.64011 44.1648 2.44981C44.3551 2.16436 44.8309 2.06921 45.3701 2.2278C45.9092 2.35466 46.4167 2.70354 46.5436 3.08413ZM53.0667 6.66806C52.02 6.57291 51.8298 6.69978 51.7346 7.71469C51.6077 9.36393 51.576 11.0449 51.4809 12.7258C51.4809 13.265 51.576 13.8676 51.6077 14.5337C52.9715 14.4702 54.2402 14.4068 55.5405 14.3117C56.3969 14.2799 57.2215 14.4702 57.9827 14.9143C58.173 15.0094 58.2681 15.1997 58.4584 15.2949C57.9827 16.1195 57.2215 16.4684 56.3652 16.5952C55.2868 16.7221 54.2085 16.7221 53.0984 16.7538C52.6227 16.7538 52.1469 16.7538 51.576 16.7538C51.6395 19.0056 51.6395 21.1941 51.8615 23.4776C52.8447 23.3508 53.7327 23.2239 54.6208 23.1287C55.9211 22.9384 57.1898 22.653 58.4901 22.5261C58.9976 22.4627 59.5368 22.5896 60.0125 22.7482C60.8689 23.097 60.9323 23.7631 60.2663 24.2705C59.9174 24.5243 59.4733 24.6828 58.9976 24.778C56.8092 25.1269 54.6208 25.444 52.4641 25.7612C51.9566 25.8246 51.4809 25.8246 50.9734 25.8246C50.3708 25.8246 49.7999 25.3806 49.6096 24.778C49.5145 24.3657 49.451 23.9851 49.4193 23.5411C49.2925 21.5429 49.1656 19.4814 49.0704 17.4833C49.0387 17.1027 48.8801 16.6904 48.7216 16.3415C48.4996 15.9609 48.4044 15.612 48.6899 15.2949C49.0704 14.946 49.007 14.4702 49.007 14.0262C49.0387 11.9329 49.0387 9.83968 49.1656 7.74641C49.3876 4.89195 50.6563 3.90875 53.3521 4.16248C54.8745 4.32106 56.3017 4.47964 57.8558 4.60651C58.5853 4.66994 59.2831 4.70166 59.9491 4.79681C60.8689 4.86024 61.5666 5.3677 61.63 6.00202C61.63 6.63634 61.0274 7.23895 60.1077 7.20723C58.4901 7.1438 56.8092 7.01694 55.1917 6.85836C54.4939 6.79492 53.7962 6.69978 53.0667 6.66806ZM74.7048 4.86024C75.5294 5.20912 75.5294 5.87515 74.7682 6.50948C74.2608 6.85836 73.6899 7.04865 73.119 7.04865C70.9623 7.04865 68.7739 7.04865 66.5854 7.04865C66.3 7.04865 65.9828 7.04865 65.5388 7.04865C65.5071 7.49268 65.4437 7.80984 65.412 8.06357C65.3485 10.9497 65.3168 13.7408 65.2217 16.6586C65.1265 18.9105 65.0314 21.1941 64.9362 23.5093C64.9045 23.9534 64.8411 24.4291 64.6508 24.8731C64.619 25.0951 64.3019 25.3489 64.0799 25.3806C63.8896 25.3806 63.5724 25.222 63.4773 25.0317C63.3187 24.7463 63.2235 24.3657 63.2235 24.0485C63.1918 18.8788 63.1284 13.7408 63.1284 8.57103C63.0967 8.00014 63.1601 7.39753 63.2553 6.82664C63.4455 5.30426 64.2385 4.70166 65.6657 4.66994C65.7925 4.66994 65.856 4.66994 65.9828 4.66994C68.5519 4.66994 71.1209 4.63822 73.6899 4.66994C74.0387 4.66994 74.4193 4.73337 74.7048 4.86024ZM88.6966 5.39941C89.8701 7.20723 90.3775 9.3005 90.2189 11.4572C90.0604 14.5654 89.0772 17.3881 87.4279 19.8937C86.6667 21.0355 85.8104 22.0504 84.7003 22.7799C82.0362 24.5243 79.15 23.8582 77.469 21.0355C76.7713 19.862 76.4858 18.5299 76.2004 17.1978C76.0418 16.2146 75.915 15.2314 75.7247 14.2165C74.9318 10.3471 76.803 5.74829 80.0698 3.71846C81.1481 2.95727 82.4168 2.64011 84.0977 2.64011C85.8421 2.64011 87.4914 3.55987 88.6966 5.39941ZM87.9037 11.9012C88.0622 10.03 87.7768 8.28558 86.8887 6.76321C86.1593 5.46284 85.1444 4.79681 83.7806 4.79681C82.5119 4.79681 81.3384 5.20912 80.4504 6.31918C79.9429 6.98522 79.4037 7.74641 78.9597 8.47588C78.5791 9.17364 78.1985 9.83968 78.5157 10.7277C78.5791 10.9497 78.484 11.2352 78.3888 11.4889C78.3888 12.3135 78.3254 13.1382 78.2937 13.8676C78.3254 14.6922 78.3254 15.3583 78.3888 16.056C78.5791 17.4198 78.7694 18.7836 79.4037 19.9888C80.4504 21.8284 81.8776 22.1773 83.5586 20.972C84.0343 20.5915 84.51 20.1474 84.9541 19.6083C86.635 17.3881 87.6182 14.7874 87.9037 11.9012ZM114.265 3.40129C114.329 4.0039 114.361 4.57479 114.361 5.20912C114.329 7.39753 114.297 9.61766 114.234 11.8061C114.17 14.6288 114.012 17.4198 113.885 20.2109C113.853 20.972 113.821 21.765 113.695 22.5261C113.568 23.097 113.377 23.6679 113.092 24.2071C112.711 24.9366 112.204 24.9049 111.823 24.1754C111.411 23.4142 111.284 22.6213 111.316 21.8284C111.411 19.9888 111.538 18.1493 111.57 16.3098C111.633 15.9926 111.57 15.6754 111.57 15.2631C108.937 15.4217 106.336 15.5803 103.672 15.7072C103.609 16.5318 103.545 17.293 103.514 18.0224C103.482 19.3228 103.514 20.6232 103.45 21.8601C103.355 22.875 103.165 23.8265 103.006 24.8097C102.975 25.0317 102.943 25.222 102.816 25.3806C102.657 25.5709 102.467 25.8246 102.245 25.8563C102.118 25.8563 101.833 25.6343 101.769 25.4757C101.484 24.7463 101.23 23.9851 101.103 23.2873C100.945 22.5261 100.945 21.7332 100.945 20.972C100.945 19.6083 101.072 18.2445 101.103 16.8489C101.103 16.2781 101.262 15.612 100.818 15.0094C100.723 14.9143 100.786 14.5654 100.913 14.4068C101.294 14.0262 101.23 13.5505 101.294 13.1064C101.611 9.52251 101.96 5.90687 102.277 2.35466C102.308 1.87892 102.467 1.40318 102.689 1.02258C103.133 0.29311 103.989 0.356544 104.338 1.14945C104.465 1.49832 104.529 1.91063 104.497 2.32294C104.433 4.0039 104.307 5.68486 104.148 7.39753C104.021 9.52251 103.863 11.6475 103.736 13.9311C106.368 13.8042 108.969 13.6773 111.665 13.5505C111.665 13.4553 111.728 13.2333 111.728 12.9796C111.918 10.03 112.077 7.08037 112.267 4.1942C112.331 3.90875 112.331 3.62331 112.363 3.36958C112.521 2.76697 112.87 2.51324 113.346 2.51324C113.821 2.54496 114.17 2.8304 114.265 3.40129ZM121.114 6.66806C120.067 6.57291 119.877 6.69978 119.782 7.71469C119.655 9.36393 119.623 11.0449 119.528 12.7258C119.528 13.265 119.623 13.8676 119.655 14.5337C121.019 14.4702 122.287 14.4068 123.588 14.3117C124.444 14.2799 125.269 14.4702 126.03 14.9143C126.22 15.0094 126.315 15.1997 126.506 15.2949C126.03 16.1195 125.269 16.4684 124.412 16.5952C123.334 16.7221 122.256 16.7221 121.146 16.7538C120.67 16.7538 120.194 16.7538 119.623 16.7538C119.687 19.0056 119.687 21.1941 119.909 23.4776C120.892 23.3508 121.78 23.2239 122.668 23.1287C123.968 22.9384 125.237 22.653 126.537 22.5261C127.045 22.4627 127.584 22.5896 128.06 22.7482C128.916 23.097 128.98 23.7631 128.314 24.2705C127.965 24.5243 127.521 24.6828 127.045 24.778C124.856 25.1269 122.668 25.444 120.511 25.7612C120.004 25.8246 119.528 25.8246 119.021 25.8246C118.418 25.8246 117.847 25.3806 117.657 24.778C117.562 24.3657 117.498 23.9851 117.467 23.5411C117.34 21.5429 117.213 19.4814 117.118 17.4833C117.086 17.1027 116.927 16.6904 116.769 16.3415C116.547 15.9609 116.452 15.612 116.737 15.2949C117.118 14.946 117.054 14.4702 117.054 14.0262C117.086 11.9329 117.086 9.83968 117.213 7.74641C117.435 4.89195 118.704 3.90875 121.399 4.16248C122.922 4.32106 124.349 4.47964 125.903 4.60651C126.633 4.66994 127.33 4.70166 127.996 4.79681C128.916 4.86024 129.614 5.3677 129.677 6.00202C129.677 6.63634 129.075 7.23895 128.155 7.20723C126.537 7.1438 124.856 7.01694 123.239 6.85836C122.541 6.79492 121.843 6.69978 121.114 6.66806ZM153.26 3.40129C153.324 4.0039 153.355 4.57479 153.355 5.20912C153.324 7.39753 153.292 9.61766 153.229 11.8061C153.165 14.6288 153.007 17.4198 152.88 20.2109C152.848 20.972 152.816 21.765 152.689 22.5261C152.562 23.097 152.372 23.6679 152.087 24.2071C151.706 24.9366 151.199 24.9049 150.818 24.1754C150.406 23.4142 150.279 22.6213 150.311 21.8284C150.406 19.9888 150.533 18.1493 150.564 16.3098C150.628 15.9926 150.564 15.6754 150.564 15.2631C147.932 15.4217 145.331 15.5803 142.667 15.7072C142.604 16.5318 142.54 17.293 142.508 18.0224C142.477 19.3228 142.508 20.6232 142.445 21.8601C142.35 22.875 142.16 23.8265 142.001 24.8097C141.969 25.0317 141.938 25.222 141.811 25.3806C141.652 25.5709 141.462 25.8246 141.24 25.8563C141.113 25.8563 140.828 25.6343 140.764 25.4757C140.479 24.7463 140.225 23.9851 140.098 23.2873C139.939 22.5261 139.939 21.7332 139.939 20.972C139.939 19.6083 140.066 18.2445 140.098 16.8489C140.098 16.2781 140.257 15.612 139.813 15.0094C139.717 14.9143 139.781 14.5654 139.908 14.4068C140.288 14.0262 140.225 13.5505 140.288 13.1064C140.606 9.52251 140.954 5.90687 141.272 2.35466C141.303 1.87892 141.462 1.40318 141.684 1.02258C142.128 0.29311 142.984 0.356544 143.333 1.14945C143.46 1.49832 143.523 1.91063 143.492 2.32294C143.428 4.0039 143.301 5.68486 143.143 7.39753C143.016 9.52251 142.857 11.6475 142.73 13.9311C145.363 13.8042 147.964 13.6773 150.66 13.5505C150.66 13.4553 150.723 13.2333 150.723 12.9796C150.913 10.03 151.072 7.08037 151.262 4.1942C151.326 3.90875 151.326 3.62331 151.357 3.36958C151.516 2.76697 151.865 2.51324 152.34 2.51324C152.816 2.54496 153.165 2.8304 153.26 3.40129ZM170.194 18.2762C170.67 18.6251 170.734 19.1008 170.29 19.5448C169.941 19.9254 169.972 20.3377 170.004 20.8135C170.131 22.1455 170.226 23.4776 170.258 24.8097C170.258 25.4123 170.131 26.0149 169.846 26.5224C169.433 27.3153 168.672 27.2836 168.26 26.4907C168.069 26.2052 167.974 25.8563 167.943 25.5709C167.816 24.8097 167.784 24.0168 167.784 23.2873C167.721 22.3041 167.625 21.3844 167.562 20.3377C164.39 20.3377 161.219 20.3377 158.015 20.3377C157.857 21.0989 157.667 21.7967 157.54 22.5579C157.381 23.1605 157.254 23.7948 157.127 24.4291C157.064 24.6511 156.969 24.9366 156.842 25.1269C156.461 25.6343 155.827 25.5709 155.668 25C155.51 24.4608 155.542 23.8582 155.637 23.319C155.732 22.3358 155.89 21.4161 156.049 20.3694C155.573 20.1157 154.78 20.1474 154.876 19.2911C154.971 18.4348 155.827 18.5299 156.525 18.181C156.905 16.6269 157.318 15.1046 157.73 13.5505C158.364 11.4889 159.03 9.36393 159.76 7.30238C160.077 6.41433 160.521 5.62143 160.933 4.79681C161.187 4.35278 161.441 3.97218 161.758 3.65502C162.709 2.64011 163.883 2.60839 164.898 3.43301C165.754 4.03562 166.262 4.9871 166.706 5.87515C167.657 7.96842 168.228 10.0934 168.672 12.3135C169.053 13.8359 169.275 15.4534 169.592 17.0392C169.655 17.4833 169.719 17.9273 170.194 18.2762ZM158.523 18.0224C161.441 17.8956 164.264 17.8004 167.213 17.7053C167.15 17.3247 167.213 17.0392 167.118 16.7221C166.737 14.7557 166.389 12.7576 165.913 10.8546C165.564 9.36393 165.025 7.90499 164.486 6.47776C164.264 5.87515 163.946 5.30426 163.312 4.89195C162.709 5.33598 162.424 5.93859 162.17 6.50948C161.092 8.79304 160.394 11.14 159.728 13.5187C159.316 14.946 158.935 16.4366 158.523 18.0224ZM187.721 23.319C187.753 23.7631 187.753 24.2388 187.657 24.7146C187.626 24.9683 187.34 25.2854 187.15 25.3489C186.896 25.444 186.611 25.2537 186.42 25.1269C186.23 24.9366 186.135 24.6194 186.103 24.3657C185.945 23.8265 185.786 23.2873 185.754 22.7482C185.247 18.0542 184.771 13.4236 184.296 8.72961C184.296 8.41245 184.2 8.19043 184.105 7.74641C183.788 8.3173 183.566 8.66618 183.376 9.04677C181.663 12.3135 180.046 15.5803 178.269 18.7836C177.159 20.8452 175.891 22.8116 174.59 24.778C174.241 25.3172 173.734 25.7295 173.1 25.6026C172.434 25.444 172.053 25.0317 172.085 24.3657C172.085 23.3508 172.117 22.3676 172.212 21.3526C172.434 17.3564 172.719 13.3919 173.036 9.36393C173.163 7.61954 173.258 5.93859 173.417 4.16248C173.48 3.78189 173.607 3.27443 173.829 2.92555C174.21 2.2278 174.812 2.16436 175.13 2.70354C175.415 3.211 175.605 3.8136 175.542 4.38449C175.32 9.1102 174.939 13.8359 174.622 18.6251C174.59 19.5131 174.495 20.4012 174.4 21.2892C174.463 21.2892 174.495 21.3209 174.59 21.3209C174.717 21.0672 174.971 20.7818 175.13 20.4963C176.144 18.6251 177.128 16.7538 178.143 14.8825C179.538 12.2184 180.934 9.61766 182.393 7.01694C182.678 6.41433 183.09 5.84344 183.534 5.39941C184.422 4.47964 185.437 4.57479 185.85 5.55799C186.04 5.9703 186.103 6.47776 186.167 6.9535C186.42 9.52251 186.643 12.0598 186.865 14.6605C187.118 17.515 187.467 20.4329 187.721 23.319ZM180.236 3.87704C178.967 3.75017 178.016 2.73526 177.286 1.78377C177.001 1.40318 177.477 0.927433 177.762 0.737136C178.047 0.515124 178.618 0.324826 178.904 0.673705C179.253 1.14945 179.633 1.62519 180.077 1.94235C180.268 2.10093 180.458 2.19608 180.68 2.32294C180.68 2.32294 180.68 2.32294 180.712 2.32294C180.712 2.32294 180.712 2.32294 180.743 2.32294C180.775 2.35466 180.838 2.35466 180.902 2.38638C180.997 2.38638 181.092 2.41809 181.187 2.41809C181.251 2.41809 181.282 2.41809 181.346 2.41809C181.409 2.41809 181.473 2.41809 181.504 2.41809C181.536 2.41809 181.536 2.41809 181.536 2.41809C181.631 2.38638 181.727 2.38638 181.853 2.35466C181.917 2.32294 182.234 2.19608 182.012 2.29123C182.266 2.19608 182.519 2.10093 182.773 1.97407C182.9 1.91063 183.027 1.81549 183.154 1.75205C183.185 1.75205 183.249 1.72034 183.249 1.72034C183.312 1.68862 183.376 1.62519 183.439 1.59347C183.725 1.43489 184.327 1.18116 184.581 1.56176C184.835 1.91063 184.422 2.41809 184.105 2.60839C182.932 3.27443 181.631 4.0039 180.236 3.87704ZM181.568 2.41809C181.6 2.41809 181.6 2.41809 181.568 2.41809V2.41809ZM201.668 5.55799C206.204 7.30238 208.234 11.9964 206.616 16.6904C205.062 21.1941 200.4 24.6194 195.642 24.7146C194.913 24.7463 194.247 24.7146 193.961 25.6026C193.866 25.9832 193.454 26.1101 193.073 26.0149C192.661 25.9515 192.344 25.666 192.375 25.2537C192.439 24.5243 192.058 24.1119 191.519 23.6362C191.17 23.319 190.79 22.9067 190.885 22.1773C191.361 22.1138 191.836 22.0504 192.439 21.987C192.534 20.9403 192.661 19.9571 192.629 18.9739C192.629 15.5486 192.534 12.1232 192.471 8.69789C192.185 9.01506 191.868 9.42736 191.583 9.93482C191.012 10.9815 190.79 12.2818 190.695 13.4553C190.663 13.9945 190.028 14.2482 189.616 13.8993C189.616 13.8993 189.584 13.8993 189.584 13.8676C189.267 13.5822 189.045 13.1699 189.014 12.7258C188.918 11.1718 189.299 9.58595 190.124 8.25387C190.663 7.36581 191.456 6.44605 192.407 5.81172C192.407 5.55799 192.375 5.30426 192.375 5.05054C192.439 4.35278 192.661 3.97218 193.168 3.94047C193.708 3.8136 193.961 4.1942 194.215 4.60651C194.278 4.73337 194.342 4.82852 194.405 5.01882C194.722 4.9871 195.008 4.95539 195.293 4.86024C197.482 4.47964 199.607 4.76509 201.668 5.55799ZM204.554 14.7557C205.094 11.5841 203.54 8.69789 200.527 7.49268C199.068 6.9535 197.513 6.73149 195.896 6.9535C195.579 6.9535 195.23 7.04865 194.849 7.17552C195.325 12.1867 195.357 17.1344 194.976 22.1773C199.353 22.431 203.793 18.9105 204.554 14.7557ZM213.134 6.66806C212.088 6.57291 211.897 6.69978 211.802 7.71469C211.675 9.36393 211.644 11.0449 211.548 12.7258C211.548 13.265 211.644 13.8676 211.675 14.5337C213.039 14.4702 214.308 14.4068 215.608 14.3117C216.464 14.2799 217.289 14.4702 218.05 14.9143C218.24 15.0094 218.336 15.1997 218.526 15.2949C218.05 16.1195 217.289 16.4684 216.433 16.5952C215.354 16.7221 214.276 16.7221 213.166 16.7538C212.69 16.7538 212.214 16.7538 211.644 16.7538C211.707 19.0056 211.707 21.1941 211.929 23.4776C212.912 23.3508 213.8 23.2239 214.688 23.1287C215.989 22.9384 217.257 22.653 218.558 22.5261C219.065 22.4627 219.604 22.5896 220.08 22.7482C220.936 23.097 221 23.7631 220.334 24.2705C219.985 24.5243 219.541 24.6828 219.065 24.778C216.877 25.1269 214.688 25.444 212.532 25.7612C212.024 25.8246 211.548 25.8246 211.041 25.8246C210.438 25.8246 209.867 25.3806 209.677 24.778C209.582 24.3657 209.519 23.9851 209.487 23.5411C209.36 21.5429 209.233 19.4814 209.138 17.4833C209.106 17.1027 208.948 16.6904 208.789 16.3415C208.567 15.9609 208.472 15.612 208.757 15.2949C209.138 14.946 209.075 14.4702 209.075 14.0262C209.106 11.9329 209.106 9.83968 209.233 7.74641C209.455 4.89195 210.724 3.90875 213.42 4.16248C214.942 4.32106 216.369 4.47964 217.923 4.60651C218.653 4.66994 219.351 4.70166 220.017 4.79681C220.936 4.86024 221.634 5.3677 221.698 6.00202C221.698 6.63634 221.095 7.23895 220.175 7.20723C218.558 7.1438 216.877 7.01694 215.259 6.85836C214.561 6.79492 213.864 6.69978 213.134 6.66806ZM236.453 3.40129C236.517 4.0039 236.548 4.57479 236.548 5.20912C236.517 7.39753 236.485 9.61766 236.422 11.8061C236.358 14.6288 236.2 17.4198 236.073 20.2109C236.041 20.972 236.009 21.765 235.882 22.5261C235.755 23.097 235.565 23.6679 235.28 24.2071C234.899 24.9366 234.392 24.9049 234.011 24.1754C233.599 23.4142 233.472 22.6213 233.504 21.8284C233.599 19.9888 233.726 18.1493 233.757 16.3098C233.821 15.9926 233.757 15.6754 233.757 15.2631C231.125 15.4217 228.524 15.5803 225.86 15.7072C225.797 16.5318 225.733 17.293 225.701 18.0224C225.67 19.3228 225.701 20.6232 225.638 21.8601C225.543 22.875 225.353 23.8265 225.194 24.8097C225.162 25.0317 225.131 25.222 225.004 25.3806C224.845 25.5709 224.655 25.8246 224.433 25.8563C224.306 25.8563 224.02 25.6343 223.957 25.4757C223.672 24.7463 223.418 23.9851 223.291 23.2873C223.132 22.5261 223.132 21.7332 223.132 20.972C223.132 19.6083 223.259 18.2445 223.291 16.8489C223.291 16.2781 223.45 15.612 223.006 15.0094C222.91 14.9143 222.974 14.5654 223.101 14.4068C223.481 14.0262 223.418 13.5505 223.481 13.1064C223.798 9.52251 224.147 5.90687 224.465 2.35466C224.496 1.87892 224.655 1.40318 224.877 1.02258C225.321 0.29311 226.177 0.356544 226.526 1.14945C226.653 1.49832 226.716 1.91063 226.685 2.32294C226.621 4.0039 226.494 5.68486 226.336 7.39753C226.209 9.52251 226.05 11.6475 225.923 13.9311C228.556 13.8042 231.157 13.6773 233.853 13.5505C233.853 13.4553 233.916 13.2333 233.916 12.9796C234.106 10.03 234.265 7.08037 234.455 4.1942C234.519 3.90875 234.519 3.62331 234.55 3.36958C234.709 2.76697 235.058 2.51324 235.533 2.51324C236.009 2.54496 236.358 2.8304 236.453 3.40129ZM251.706 5.39941C252.88 7.20723 253.387 9.3005 253.229 11.4572C253.07 14.5654 252.087 17.3881 250.438 19.8937C249.677 21.0355 248.82 22.0504 247.71 22.7799C245.046 24.5243 242.16 23.8582 240.479 21.0355C239.781 19.862 239.496 18.5299 239.21 17.1978C239.052 16.2146 238.925 15.2314 238.735 14.2165C237.942 10.3471 239.813 5.74829 243.08 3.71846C244.158 2.95727 245.427 2.64011 247.108 2.64011C248.852 2.64011 250.501 3.55987 251.706 5.39941ZM250.914 11.9012C251.072 10.03 250.787 8.28558 249.899 6.76321C249.169 5.46284 248.154 4.79681 246.79 4.79681C245.522 4.79681 244.348 5.20912 243.46 6.31918C242.953 6.98522 242.414 7.74641 241.97 8.47588C241.589 9.17364 241.208 9.83968 241.526 10.7277C241.589 10.9497 241.494 11.2352 241.399 11.4889C241.399 12.3135 241.335 13.1382 241.304 13.8676C241.335 14.6922 241.335 15.3583 241.399 16.056C241.589 17.4198 241.779 18.7836 242.414 19.9888C243.46 21.8284 244.888 22.1773 246.568 20.972C247.044 20.5915 247.52 20.1474 247.964 19.6083C249.645 17.3881 250.628 14.7874 250.914 11.9012Z" fill="#696969"/>
</svg>
